<svg width="19" height="19" viewBox="0 0 19 19" fill="none" xmlns="http://www.w3.org/2000/svg">
<path d="M13.3632 16.0312C11.8432 16.0312 10.4103 15.2237 9.63448 13.9175C9.22281 13.2525 9.00906 12.4766 9.00906 11.677C9.00906 9.27829 10.9645 7.32288 13.3632 7.32288C15.762 7.32288 17.7174 9.27829 17.7174 11.677C17.7174 12.4766 17.4957 13.2525 17.0841 13.9254C16.3161 15.2237 14.8911 16.0312 13.3632 16.0312ZM13.3632 8.51038C11.6136 8.51038 10.1966 9.92746 10.1966 11.677C10.1966 12.255 10.3549 12.817 10.6557 13.3C11.2257 14.2579 12.2628 14.8437 13.3632 14.8437C14.4874 14.8437 15.5007 14.2737 16.0707 13.3079C16.3716 12.817 16.5299 12.255 16.5299 11.677C16.5299 9.92746 15.1128 8.51038 13.3632 8.51038Z" fill="#848397"/>
<path d="M14.7724 12.255H11.962C11.6374 12.255 11.3682 11.9858 11.3682 11.6613C11.3682 11.3367 11.6374 11.0675 11.962 11.0675H14.7724C15.097 11.0675 15.3661 11.3367 15.3661 11.6613C15.3661 11.9858 15.097 12.255 14.7724 12.255Z" fill="#848397"/>
<path d="M13.3633 13.6879C13.0387 13.6879 12.7695 13.4187 12.7695 13.0941V10.2916C12.7695 9.96704 13.0387 9.69788 13.3633 9.69788C13.6878 9.69788 13.957 9.96704 13.957 10.2916V13.102C13.957 13.4266 13.6958 13.6879 13.3633 13.6879Z" fill="#848397"/>
<path d="M8.65275 18.0105C8.27275 18.0105 7.89275 17.9155 7.55234 17.7255C6.84775 17.3296 6.42817 16.6171 6.42817 15.8175V11.5821C6.42817 11.1863 6.16692 10.5846 5.91359 10.2759L2.90525 7.11712C2.4065 6.60253 2.01859 5.73963 2.01859 5.1063V3.2617C2.01859 1.98712 2.98442 0.989624 4.2115 0.989624H14.7723C15.9836 0.989624 16.9653 1.97131 16.9653 3.18256V4.94003C16.9653 5.77128 16.4744 6.70548 15.9994 7.19631L14.5744 8.45503C14.4319 8.5817 14.234 8.62919 14.044 8.5896C13.8303 8.53419 13.6007 8.51046 13.3632 8.51046C11.6136 8.51046 10.1965 9.92754 10.1965 11.6771C10.1965 12.255 10.3548 12.8171 10.6557 13.308C10.909 13.7275 11.2494 14.0759 11.6453 14.3213C11.8194 14.4321 11.9303 14.6221 11.9303 14.8279V15.0971C11.9303 15.7225 11.5503 16.6013 10.9169 16.9734L9.82442 17.678C9.46817 17.8996 9.0565 18.0105 8.65275 18.0105ZM4.21942 2.17712C3.65734 2.17712 3.214 2.65212 3.214 3.2617V5.1063C3.214 5.3913 3.4515 5.97713 3.76817 6.2938L6.81609 9.50004C7.21984 9.99879 7.62359 10.8459 7.62359 11.5901V15.8254C7.62359 16.3479 7.98775 16.6092 8.13817 16.6963C8.47859 16.8863 8.88234 16.8784 9.19109 16.6884L10.2994 15.9759C10.5132 15.8492 10.7269 15.4455 10.7428 15.1605C10.3073 14.8359 9.92734 14.4163 9.64234 13.9413C9.23067 13.2684 9.009 12.4926 9.009 11.7009C9.009 9.30215 10.9644 7.34673 13.3632 7.34673C13.5848 7.34673 13.8065 7.36256 14.0123 7.39423L15.184 6.35715C15.4532 6.08006 15.7857 5.42296 15.7857 4.95588V3.19836C15.7857 2.64419 15.3344 2.19297 14.7803 2.19297H4.21942V2.17712Z" fill="#848397"/>
</svg>
