<svg width="15" height="15" viewBox="0 0 15 15" fill="none" xmlns="http://www.w3.org/2000/svg">
<path d="M6.875 12.9688C3.5125 12.9688 0.78125 10.2375 0.78125 6.875C0.78125 3.5125 3.5125 0.78125 6.875 0.78125C10.2375 0.78125 12.9688 3.5125 12.9688 6.875C12.9688 10.2375 10.2375 12.9688 6.875 12.9688ZM6.875 1.71875C4.03125 1.71875 1.71875 4.03125 1.71875 6.875C1.71875 9.71875 4.03125 12.0312 6.875 12.0312C9.71875 12.0312 12.0312 9.71875 12.0312 6.875C12.0312 4.03125 9.71875 1.71875 6.875 1.71875Z" fill="#848397"/>
<path d="M12.6 14.2437C12.55 14.2437 12.5 14.2375 12.4562 14.2312C12.1625 14.1937 11.6312 13.9937 11.3312 13.1C11.175 12.6312 11.2312 12.1625 11.4875 11.8062C11.7437 11.45 12.175 11.25 12.6687 11.25C13.3062 11.25 13.8062 11.4938 14.0312 11.925C14.2562 12.3562 14.1937 12.9062 13.8375 13.4375C13.3937 14.1062 12.9125 14.2437 12.6 14.2437ZM12.225 12.8062C12.3312 13.1312 12.4812 13.2937 12.5812 13.3062C12.6812 13.3187 12.8687 13.2 13.0625 12.9187C13.2437 12.65 13.2562 12.4562 13.2125 12.3687C13.1687 12.2812 12.9937 12.1875 12.6687 12.1875C12.475 12.1875 12.3312 12.25 12.25 12.3562C12.175 12.4625 12.1625 12.625 12.225 12.8062Z" fill="#848397"/>
</svg>
